<svg width="27" height="10" viewBox="0 0 27 10" fill="none" xmlns="http://www.w3.org/2000/svg">
<path d="M2.84585 1.02375C2.69004 0.841994 2.45729 0.746536 2.24593 0.705352C2.02701 0.662692 1.78035 0.667636 1.55123 0.733546C1.32871 0.797559 1.11352 0.923252 0.99549 1.12652C0.93407 1.2323 0.900841 1.35797 0.91491 1.49192C0.928916 1.62528 0.987176 1.74256 1.06871 1.83767L6.54245 8.22311C6.81737 8.54383 7.20967 8.75176 7.62278 8.87316C8.0385 8.99533 8.49874 9.03713 8.93993 9.00755C9.3802 8.97804 9.81825 8.87629 10.1858 8.69702C10.5503 8.51918 10.8769 8.24851 11.0321 7.86531L12.6647 3.83505C12.668 3.83115 12.682 3.81638 12.7208 3.79744C12.778 3.7695 12.8626 3.74683 12.9626 3.74011C13.1871 3.72504 13.3368 3.79364 13.3763 3.83967L15.1483 5.90449C15.4326 6.23573 15.8398 6.44644 16.2667 6.56597C16.6963 6.68626 17.1706 6.72153 17.6213 6.68244C18.0706 6.64346 18.5151 6.52887 18.8796 6.33315C19.2416 6.13877 19.5591 5.84399 19.6768 5.43209L20.5338 2.43305C20.5383 2.42864 20.5478 2.42058 20.5659 2.40999C20.611 2.38357 20.6839 2.35781 20.7775 2.3454C20.9788 2.31872 21.1556 2.36599 21.2328 2.42944L24.8104 5.36969C24.991 5.51815 25.2285 5.59043 25.4475 5.6124C25.6704 5.63476 25.9161 5.60948 26.134 5.5205C26.345 5.43432 26.5495 5.27731 26.6216 5.03613C26.7018 4.76759 26.5829 4.5219 26.3916 4.36471L22.8141 1.42447C22.1746 0.898881 21.1985 0.756954 20.3753 0.866085C19.9566 0.921587 19.5494 1.04498 19.217 1.23961C18.8865 1.43315 18.6011 1.71561 18.4919 2.09759L17.6346 5.09772C17.6296 5.10269 17.6179 5.11264 17.5938 5.12561C17.5407 5.15413 17.4572 5.17936 17.3548 5.18825C17.2537 5.19702 17.1525 5.18821 17.0694 5.16496C16.9837 5.14096 16.941 5.10867 16.9249 5.08993L15.1529 3.02512C14.6124 2.39534 13.6113 2.18387 12.7555 2.24136C12.3153 2.27093 11.8773 2.37271 11.5099 2.55198C11.1455 2.72982 10.819 3.00045 10.6638 3.38356L9.03118 7.41384C9.02788 7.41774 9.01394 7.43252 8.97511 7.45146C8.91782 7.4794 8.83322 7.50207 8.73323 7.50877C8.63415 7.51541 8.5365 7.50523 8.45697 7.48186C8.37481 7.45772 8.33446 7.42654 8.31959 7.40919L2.84585 1.02375ZM17.6376 5.09424C17.6376 5.09424 17.6374 5.09456 17.6369 5.09515L17.6376 5.09424Z" fill="#7665C1" stroke="#7665C1" stroke-width="0.7" stroke-linecap="round"/>
</svg>
