<svg width="21" height="18" viewBox="0 0 21 18" fill="none" xmlns="http://www.w3.org/2000/svg">
<path fill-rule="evenodd" clip-rule="evenodd" d="M15.0334 0.214069C14.7699 0.394348 14.7079 0.585206 14.7079 1.21624V1.9957H13.7392C12.5949 1.9957 12.0443 2.14269 11.7968 2.51427C11.6782 2.69243 11.6162 3.85283 11.6162 5.89302C11.6162 7.93322 11.6782 9.09362 11.7968 9.27178C12.0443 9.64336 12.5949 9.79035 13.7392 9.79035H14.7079V11.6277C14.7079 13.3165 14.7343 13.483 15.0334 13.6877C15.4444 13.9689 16.1852 13.9735 16.6833 13.6978C17.0549 13.4921 17.0691 13.4245 17.1191 11.6378L17.1708 9.79035H18.2249C19.1271 9.79035 19.3367 9.75093 19.6784 9.51698L20.0779 9.24372V5.89302V2.54233L19.6784 2.26907C19.3372 2.03546 19.1268 1.9957 18.2323 1.9957H17.1856L17.12 1.20288C17.0652 0.538549 16.9933 0.375975 16.6769 0.200707C16.1847 -0.0721056 15.4427 -0.0659814 15.0334 0.214069ZM3.92019 2.24638C3.74607 2.378 3.6429 2.70248 3.61019 3.22072L3.56121 6.031L2.36681 6.08668C0.537115 6.17198 0.550784 6.15049 0.550784 8.93228C0.550784 11.1563 0.557617 11.202 0.937908 11.5045C1.27979 11.7763 1.46107 11.8177 2.4838 11.8573L3.64258 11.9022V14.7291C3.64258 17.4075 3.65966 17.5676 3.96803 17.7786C4.29299 18.001 4.84642 18.0628 5.34388 17.9322C5.99299 17.7617 6.08347 17.3487 6.08347 14.555V11.877H6.87285C7.93285 11.877 8.60344 11.7014 8.82735 11.3651C8.94598 11.1869 9.01254 10.2874 9.01254 8.86013C9.01254 6.64433 9.01058 6.63197 8.61304 6.36005C8.27181 6.12643 8.0614 6.08668 7.1669 6.08668H6.12024L6.05645 3.28196C5.97883 2.34204 5.67584 2.04896 4.78166 2.04896C4.41357 2.04896 4.08015 2.12535 3.92019 2.24638Z" fill="#B8C3D6"/>
</svg>
